<svg xmlns="http://www.w3.org/2000/svg" viewBox="0 0 512 512">
  <defs>
    <linearGradient id="bg" x1="0%" y1="0%" x2="100%" y2="100%">
      <stop offset="0%" style="stop-color:#0a1628"/>
      <stop offset="100%" style="stop-color:#162a46"/>
    </linearGradient>
    <linearGradient id="accent" x1="0%" y1="0%" x2="100%" y2="100%">
      <stop offset="0%" style="stop-color:#34d399"/>
      <stop offset="100%" style="stop-color:#059669"/>
    </linearGradient>
  </defs>
  <rect width="512" height="512" rx="96" fill="url(#bg)"/>
  <g transform="translate(128, 96)">
    <path d="M128 0L0 48v64c0 61.84 40.96 119.6 96 128 55.04-8.4 96-66.16 96-128V48L128 0z" fill="url(#accent)" opacity="0.2"/>
    <path d="M128 0L0 48v64c0 61.84 40.96 119.6 96 128 55.04-8.4 96-66.16 96-128V48L128 0z" stroke="url(#accent)" stroke-width="8" fill="none"/>
    <path d="M80 120h96M128 72v96" stroke="url(#accent)" stroke-width="12" stroke-linecap="round"/>
  </g>
  <g transform="translate(128, 340)">
    <rect x="0" y="0" width="256" height="8" rx="4" fill="#34d399" opacity="0.6"/>
    <rect x="0" y="24" width="200" height="8" rx="4" fill="#34d399" opacity="0.4"/>
    <rect x="0" y="48" width="160" height="8" rx="4" fill="#34d399" opacity="0.3"/>
  </g>
</svg>
