<svg xmlns="http://www.w3.org/2000/svg" viewBox="0 0 512 512">
  <defs>
    <linearGradient id="bg" x1="0%" y1="0%" x2="100%" y2="100%">
      <stop offset="0%" style="stop-color:#00f5ff"/>
      <stop offset="50%" style="stop-color:#a855f7"/>
      <stop offset="100%" style="stop-color:#ec4899"/>
    </linearGradient>
  </defs>
  <rect width="512" height="512" rx="96" fill="#050510"/>
  <g transform="translate(128, 100)">
    <path d="M128 0L0 48v64c0 61.84 40.96 119.6 96 128 55.04-8.4 96-66.16 96-128V48L128 0z" fill="url(#bg)" opacity="0.25"/>
    <path d="M128 0L0 48v64c0 61.84 40.96 119.6 96 128 55.04-8.4 96-66.16 96-128V48L128 0z" stroke="url(#bg)" stroke-width="8" fill="none"/>
    <path d="M72 115h104M124 67v96" stroke="url(#bg)" stroke-width="14" stroke-linecap="round"/>
  </g>
  <g transform="translate(128, 340)">
    <rect x="0" y="0" width="256" height="12" rx="6" fill="#00f5ff" opacity="0.6"/>
    <rect x="0" y="32" width="200" height="12" rx="6" fill="#a855f7" opacity="0.4"/>
    <rect x="0" y="64" width="150" height="12" rx="6" fill="#ec4899" opacity="0.3"/>
  </g>
</svg>
